<svg viewBox="0 0 800 200" xmlns="http://www.w3.org/2000/svg">
    <!-- Black background -->
    <rect width="800" height="200" fill="black"/>
    
    <!-- Java coffee cup symbol -->
    <path d="M720 50 h15 v20 h-15 Z M715 70 h25 M722 45 c0 0 5-5 5-10" fill="none" stroke="#444444" stroke-width="2"/>
    <path d="M720 55 c5 2 10 2 15 0" fill="none" stroke="#444444"/>
    
    <!-- Multiple tree structures -->
    <path d="M50 30 L70 50 L30 50 Z M50 50 L50 70 M40 70 L60 70" stroke="#2A2A2A" fill="none" stroke-width="2"/>
    <path d="M150 30 L170 50 L130 50 Z M150 50 L150 70 M140 70 L160 70" stroke="#2A2A2A" fill="none" stroke-width="2"/>
    
    <!-- Multiple linked list nodes -->
    <circle cx="250" cy="40" r="8" fill="none" stroke="#2A2A2A"/>
    <line x1="258" y1="40" x2="278" y2="40" stroke="#2A2A2A"/>
    <circle cx="286" cy="40" r="8" fill="none" stroke="#2A2A2A"/>
    <line x1="294" y1="40" x2="314" y2="40" stroke="#2A2A2A"/>
    <circle cx="322" cy="40" r="8" fill="none" stroke="#2A2A2A"/>
    
    <!-- Graph structure -->
    <circle cx="400" cy="30" r="6" fill="none" stroke="#2A2A2A"/>
    <circle cx="420" cy="50" r="6" fill="none" stroke="#2A2A2A"/>
    <circle cx="380" cy="50" r="6" fill="none" stroke="#2A2A2A"/>
    <line x1="400" y1="30" x2="420" y2="50" stroke="#2A2A2A"/>
    <line x1="400" y1="30" x2="380" y2="50" stroke="#2A2A2A"/>
    <line x1="380" y1="50" x2="420" y2="50" stroke="#2A2A2A"/>
    
    <!-- Binary Search Tree -->
    <circle cx="500" cy="30" r="5" fill="none" stroke="#2A2A2A"/>
    <circle cx="480" cy="45" r="5" fill="none" stroke="#2A2A2A"/>
    <circle cx="520" cy="45" r="5" fill="none" stroke="#2A2A2A"/>
    <line x1="500" y1="30" x2="480" y2="45" stroke="#2A2A2A"/>
    <line x1="500" y1="30" x2="520" y2="45" stroke="#2A2A2A"/>
    
    <!-- Array visualization -->
    <rect x="580" y="30" width="15" height="15" fill="none" stroke="#2A2A2A"/>
    <rect x="595" y="30" width="15" height="15" fill="none" stroke="#2A2A2A"/>
    <rect x="610" y="30" width="15" height="15" fill="none" stroke="#2A2A2A"/>
    
    <!-- Stack representation -->
    <rect x="50" y="120" width="30" height="8" stroke="#2A2A2A" fill="none"/>
    <rect x="50" y="128" width="30" height="8" stroke="#2A2A2A" fill="none"/>
    <rect x="50" y="136" width="30" height="8" stroke="#2A2A2A" fill="none"/>
    
    <!-- Queue representation -->
    <rect x="120" y="120" width="40" height="15" stroke="#2A2A2A" fill="none"/>
    <path d="M115 127 L120 120 L120 135 L115 127" stroke="#2A2A2A" fill="none"/>
    <path d="M160 127 L165 120 L165 135 L160 127" stroke="#2A2A2A" fill="none"/>
    
    <!-- Multiple angle brackets -->
    <text x="200" y="130" fill="#2A2A2A" font-family="Monaco, monospace" font-size="20">&lt;&gt;</text>
    <text x="650" y="130" fill="#2A2A2A" font-family="Monaco, monospace" font-size="20">&lt;T&gt;</text>
    <text x="700" y="130" fill="#2A2A2A" font-family="Monaco, monospace" font-size="20">&lt;E&gt;</text>
    
    <!-- Hash table -->
    <path d="M250 120 h40 M250 130 h40 M250 140 h40 M250 120 v20 M270 120 v20 M290 120 v20" stroke="#2A2A2A" fill="none"/>
    
    <!-- Sorting visualization -->
    <line x1="350" y1="120" x2="350" y2="140" stroke="#2A2A2A"/>
    <line x1="355" y1="125" x2="355" y2="140" stroke="#2A2A2A"/>
    <line x1="360" y1="130" x2="360" y2="140" stroke="#2A2A2A"/>
    <line x1="365" y1="127" x2="365" y2="140" stroke="#2A2A2A"/>
    
    <!-- Heap representation -->
    <path d="M450 120 L470 140 L430 140 Z" stroke="#2A2A2A" fill="none"/>
    
    <!-- Binary numbers scattered -->
    <text x="500" y="130" fill="#2A2A2A" font-family="Monaco, monospace" font-size="12">01</text>
    <text x="550" y="130" fill="#2A2A2A" font-family="Monaco, monospace" font-size="12">10</text>
    <text x="600" y="130" fill="#2A2A2A" font-family="Monaco, monospace" font-size="12">11</text>
    
    <!-- More programming symbols -->
    <text x="40" y="170" fill="#2A2A2A" font-family="Monaco, monospace" font-size="14">{ }</text>
    <text x="90" y="170" fill="#2A2A2A" font-family="Monaco, monospace" font-size="14">[ ]</text>
    <text x="140" y="170" fill="#2A2A2A" font-family="Monaco, monospace" font-size="14">( )</text>
    
    <!-- Small circuit-like patterns -->
    <path d="M650 170 h10 v-10 h10 v10 h10" stroke="#2A2A2A" fill="none"/>
    <path d="M700 170 h10 v-10 h10" stroke="#2A2A2A" fill="none"/>
    
    <!-- Recursive tree pattern -->
    <path d="M750 170 v-10 h-5 v-5 h5" stroke="#2A2A2A" fill="none"/>
    <path d="M750 160 h5 v-5 h-5" stroke="#2A2A2A" fill="none"/>
    
    <!-- Main title -->
    <text x="400" y="85" fill="#E0E0E0" font-family="Arial, sans-serif" font-size="32" font-weight="bold" text-anchor="middle">Data Structures</text>
    <text x="400" y="125" fill="#E0E0E0" font-family="Arial, sans-serif" font-size="32" font-weight="bold" text-anchor="middle">and Algorithms</text>
    <text x="400" y="165" fill="#4A9EFF" font-family="Arial, sans-serif" font-size="32" font-weight="bold" text-anchor="middle">with Java</text>
</svg>
